<svg width="32" height="32" viewBox="0 0 32 32" fill="none" xmlns="http://www.w3.org/2000/svg">
<path d="M28.8934 19.0667L28.3601 25.7334C28.1601 27.7734 28.0001 29.3334 24.3868 29.3334H7.61343C4.0001 29.3334 3.8401 27.7734 3.6401 25.7334L3.10676 19.0667C3.0001 17.9601 3.34676 16.9334 3.97343 16.1467C3.98676 16.1334 3.98676 16.1334 4.0001 16.1201C4.73343 15.2267 5.8401 14.6667 7.0801 14.6667H24.9201C26.1601 14.6667 27.2534 15.2267 27.9734 16.0934C27.9868 16.1067 28.0001 16.1201 28.0001 16.1334C28.6534 16.9201 29.0134 17.9467 28.8934 19.0667Z" stroke="#546FFF" stroke-width="1.5" stroke-miterlimit="10"/>
<path d="M4.66675 15.2401V8.37345C4.66675 3.84012 5.80008 2.70679 10.3334 2.70679H12.0267C13.7201 2.70679 14.1067 3.21345 14.7467 4.06679L16.4401 6.33345C16.8667 6.89345 17.1201 7.24012 18.2534 7.24012H21.6534C26.1867 7.24012 27.3201 8.37345 27.3201 12.9068V15.2935" stroke="#546FFF" stroke-width="1.5" stroke-miterlimit="10" stroke-linecap="round" stroke-linejoin="round"/>
<path d="M12.5732 22.6667H19.4266" stroke="#546FFF" stroke-width="1.5" stroke-miterlimit="10" stroke-linecap="round" stroke-linejoin="round"/>
</svg>
